<?xml version="1.0" encoding="utf-8"?>
<!-- Generator: Adobe Illustrator 26.2.1, SVG Export Plug-In . SVG Version: 6.00 Build 0)  -->
<svg version="1.1" id="Layer_1" xmlns="http://www.w3.org/2000/svg" xmlns:xlink="http://www.w3.org/1999/xlink" x="0px" y="0px"
	 viewBox="0 0 256 256" style="enable-background:new 0 0 256 256;" xml:space="preserve">
<style type="text/css">
	.st0{fill:#0A0A08;}
</style>
<g>
	<path class="st0" d="M255.2,75.2c0-0.8-0.1-1.5-0.1-2.3c-0.6-10.3-2.2-18.1-4.4-24.9c-0.4-1.3-0.9-2.6-1.4-3.9
		c-3.3-8.4-7.7-15.6-14.8-22.7c-7.1-7.1-14.3-11.5-22.7-14.8c-8.1-3.2-17.4-5.3-31.1-5.9C167.1,0.2,162.8,0,128,0S88.9,0.2,75.2,0.8
		C61.6,1.4,52.3,3.6,44.2,6.7c-8.4,3.3-15.6,7.7-22.7,14.8C14.4,28.6,10,35.7,6.7,44.2c-0.5,1.4-1,2.7-1.5,4.2
		C3,55.1,1.5,62.9,0.9,73.2c0,0.7-0.1,1.3-0.1,2C0.2,88.9,0,93.2,0,128s0.2,39.1,0.8,52.8c0.6,13.6,2.8,22.9,5.9,31.1
		c3.3,8.4,7.7,15.6,14.8,22.7c7.1,7.1,14.3,11.5,22.7,14.8c8.1,3.2,17.4,5.3,31.1,5.9c13.7,0.6,18,0.8,52.8,0.8s39.1-0.2,52.8-0.8
		c13.6-0.6,22.9-2.8,31.1-5.9c8.4-3.3,15.6-7.7,22.7-14.8c7.1-7.1,11.5-14.3,14.8-22.7c3.2-8.1,5.3-17.4,5.9-31.1
		c0.6-13.7,0.8-18,0.8-52.8S255.8,88.9,255.2,75.2z M28.2,52.5c2.3-6,5.1-10.2,9.6-14.7c4.5-4.5,8.7-7.2,14.7-9.6
		c4.5-1.8,11.3-3.8,23.8-4.4c13.5-0.6,17.5-0.8,51.7-0.8s38.2,0.1,51.7,0.8c12.5,0.6,19.3,2.7,23.8,4.4c6,2.3,10.2,5.1,14.7,9.6
		c4.5,4.5,7.2,8.8,9.6,14.7c0.7,1.8,1.5,4,2.1,6.7l-102.2,54.9L26,59.5C26.7,56.6,27.5,54.4,28.2,52.5z M232.2,179.7
		c-0.6,12.5-2.7,19.3-4.4,23.8c-2.3,6-5.1,10.2-9.6,14.7c-4.5,4.5-8.8,7.2-14.7,9.6c-4.5,1.8-11.3,3.8-23.8,4.4
		c-13.5,0.6-17.5,0.8-51.7,0.8s-38.2-0.1-51.7-0.8c-12.5-0.6-19.3-2.7-23.8-4.4c-6-2.3-10.2-5.1-14.7-9.6c-4.5-4.5-7.2-8.7-9.6-14.7
		c-1.8-4.5-3.8-11.3-4.4-23.8c-0.6-13.5-0.8-17.5-0.8-51.7c0-25.5,0.1-34.2,0.4-42.7l78.9,42.4l25.4,13.6l25.4-13.6L232.6,85
		c0.3,8.5,0.4,17.1,0.4,43C232.9,162.2,232.8,166.2,232.2,179.7z"/>
</g>
</svg>
