<?xml version="1.0" encoding="utf-8"?>
<!-- Generator: Adobe Illustrator 26.1.0, SVG Export Plug-In . SVG Version: 6.00 Build 0)  -->
<svg version="1.1" id="a" xmlns="http://www.w3.org/2000/svg" xmlns:xlink="http://www.w3.org/1999/xlink" x="0px" y="0px"
	 viewBox="0 0 117 43.1" style="enable-background:new 0 0 117 43.1;" xml:space="preserve">
<style type="text/css">
	.st0{enable-background:new    ;}
	.st1{fill:#283740;}
</style>
<g class="st0">
	<path class="st1" d="M2.5,12.8h3.9v2.7h0.1c0.5-1,1.1-1.7,1.9-2.3c0.8-0.6,1.8-0.9,2.9-0.9c0.2,0,0.3,0,0.5,0c0.2,0,0.3,0,0.5,0.1
		v3.8c-0.3-0.1-0.5-0.1-0.7-0.1s-0.4,0-0.6,0c-0.9,0-1.7,0.2-2.3,0.5c-0.6,0.3-1,0.8-1.3,1.2c-0.3,0.5-0.5,1-0.7,1.5
		c-0.1,0.5-0.2,0.9-0.2,1.2v8.8H2.5V12.8z"/>
</g>
<g class="st0">
	<path class="st1" d="M30.1,21.3c0,0.2,0,0.4,0,0.5c0,0.2,0,0.4,0,0.5H17.5c0,0.6,0.2,1.1,0.5,1.6c0.3,0.5,0.6,0.9,1,1.3
		c0.4,0.4,0.9,0.6,1.5,0.8c0.5,0.2,1.1,0.3,1.7,0.3c1,0,1.9-0.2,2.6-0.6c0.7-0.4,1.3-0.9,1.7-1.6l2.7,2.2c-1.6,2.2-4,3.3-7.1,3.3
		c-1.3,0-2.5-0.2-3.5-0.6c-1.1-0.4-2-1-2.8-1.7c-0.8-0.7-1.4-1.6-1.9-2.7c-0.4-1.1-0.7-2.3-0.7-3.6c0-1.3,0.2-2.5,0.7-3.6
		c0.4-1.1,1.1-2,1.8-2.8c0.8-0.8,1.7-1.4,2.8-1.8c1.1-0.4,2.2-0.6,3.4-0.6c1.1,0,2.2,0.2,3.2,0.6c1,0.4,1.8,0.9,2.5,1.7
		c0.7,0.7,1.3,1.7,1.7,2.8C29.9,18.5,30.1,19.8,30.1,21.3z M25.9,19.4c0-0.5-0.1-1-0.2-1.5c-0.1-0.5-0.4-0.9-0.7-1.3
		s-0.7-0.7-1.2-0.9c-0.5-0.2-1.1-0.3-1.7-0.3c-1.2,0-2.3,0.4-3.1,1.1s-1.3,1.7-1.4,2.9H25.9z"/>
	<path class="st1" d="M43.1,17.2c-0.4-0.5-0.9-0.9-1.5-1.3c-0.6-0.4-1.3-0.5-2.1-0.5c-0.7,0-1.3,0.1-1.8,0.4
		c-0.5,0.3-0.8,0.7-0.8,1.4c0,0.6,0.3,1.1,0.9,1.4c0.6,0.3,1.5,0.5,2.7,0.8c0.6,0.1,1.2,0.3,1.9,0.5c0.6,0.2,1.2,0.5,1.7,0.9
		c0.5,0.4,0.9,0.8,1.3,1.4s0.5,1.2,0.5,2c0,1-0.2,1.9-0.6,2.6c-0.4,0.7-0.9,1.3-1.5,1.7c-0.6,0.4-1.4,0.8-2.2,0.9
		c-0.8,0.2-1.7,0.3-2.6,0.3c-1.3,0-2.5-0.2-3.7-0.7c-1.2-0.5-2.2-1.1-3-2l2.7-2.5c0.5,0.6,1.1,1.1,1.8,1.5c0.7,0.4,1.5,0.6,2.4,0.6
		c0.3,0,0.6,0,0.9-0.1s0.6-0.2,0.9-0.3c0.3-0.1,0.5-0.3,0.6-0.6c0.2-0.3,0.2-0.6,0.2-0.9c0-0.7-0.3-1.2-0.9-1.5
		c-0.6-0.3-1.6-0.6-2.8-0.9c-0.6-0.1-1.2-0.3-1.8-0.5c-0.6-0.2-1.1-0.5-1.6-0.9c-0.5-0.4-0.8-0.8-1.1-1.3c-0.3-0.5-0.4-1.2-0.4-2
		c0-0.9,0.2-1.7,0.6-2.4c0.4-0.7,0.9-1.2,1.5-1.6c0.6-0.4,1.3-0.7,2.1-0.9c0.8-0.2,1.6-0.3,2.4-0.3c1.2,0,2.4,0.2,3.5,0.6
		c1.1,0.4,2,1,2.7,1.9L43.1,17.2z"/>
	<path class="st1" d="M64.3,29.3h-3.9v-2.6h-0.1c-0.4,0.8-1,1.5-1.9,2.2c-0.9,0.6-2,0.9-3.2,0.9c-1.1,0-2-0.2-2.8-0.6
		c-0.8-0.4-1.4-0.9-1.9-1.5c-0.5-0.6-0.9-1.3-1.1-2.1c-0.2-0.8-0.3-1.6-0.3-2.5V12.8h4.1V22c0,0.5,0,1,0.1,1.5
		c0.1,0.5,0.2,1,0.4,1.4c0.2,0.4,0.5,0.8,0.9,1c0.4,0.3,0.9,0.4,1.6,0.4c0.6,0,1.2-0.1,1.7-0.4c0.5-0.3,0.9-0.6,1.2-1
		c0.3-0.4,0.5-0.9,0.7-1.4c0.2-0.5,0.2-1.1,0.2-1.6v-9.1h4.1V29.3z"/>
	<path class="st1" d="M88.9,12.4c1.1,0,2,0.2,2.8,0.6c0.8,0.4,1.4,0.9,1.9,1.5s0.9,1.3,1.1,2.1c0.2,0.8,0.3,1.6,0.3,2.5v10.3h-4.1
		v-9.1c0-0.5,0-1-0.1-1.5s-0.2-1-0.4-1.4c-0.2-0.4-0.5-0.8-0.9-1s-0.9-0.4-1.6-0.4c-0.6,0-1.2,0.1-1.6,0.4c-0.5,0.3-0.8,0.6-1.1,1.1
		c-0.3,0.4-0.5,0.9-0.7,1.5c-0.1,0.5-0.2,1.1-0.2,1.6v9H80v-10c0-1-0.2-1.9-0.7-2.6c-0.5-0.7-1.3-1-2.3-1c-0.6,0-1.2,0.1-1.6,0.4
		c-0.5,0.3-0.8,0.6-1.1,1c-0.3,0.4-0.5,0.9-0.7,1.4c-0.1,0.5-0.2,1.1-0.2,1.6v9.1h-4.1V12.8h3.9v2.6h0.1c0.2-0.4,0.4-0.8,0.7-1.2
		s0.7-0.7,1.1-1c0.4-0.3,0.9-0.5,1.5-0.7c0.5-0.2,1.2-0.3,1.8-0.3c1.3,0,2.3,0.3,3.2,0.9c0.8,0.6,1.5,1.3,2,2.3
		c0.5-1,1.3-1.8,2.2-2.3S87.7,12.4,88.9,12.4z"/>
	<path class="st1" d="M115.5,21.3c0,0.2,0,0.4,0,0.5c0,0.2,0,0.4,0,0.5h-12.5c0,0.6,0.2,1.1,0.5,1.6c0.3,0.5,0.6,0.9,1,1.3
		c0.4,0.4,0.9,0.6,1.5,0.8c0.5,0.2,1.1,0.3,1.7,0.3c1,0,1.9-0.2,2.6-0.6c0.7-0.4,1.3-0.9,1.8-1.6l2.7,2.2c-1.6,2.2-4,3.3-7.1,3.3
		c-1.3,0-2.5-0.2-3.5-0.6c-1.1-0.4-2-1-2.8-1.7c-0.8-0.7-1.4-1.6-1.9-2.7c-0.4-1.1-0.7-2.3-0.7-3.6c0-1.3,0.2-2.5,0.7-3.6
		c0.4-1.1,1.1-2,1.8-2.8c0.8-0.8,1.7-1.4,2.8-1.8c1.1-0.4,2.2-0.6,3.4-0.6c1.1,0,2.2,0.2,3.2,0.6c1,0.4,1.8,0.9,2.5,1.7
		c0.7,0.7,1.3,1.7,1.7,2.8C115.3,18.5,115.5,19.8,115.5,21.3z M111.4,19.4c0-0.5-0.1-1-0.2-1.5c-0.1-0.5-0.4-0.9-0.7-1.3
		s-0.7-0.7-1.2-0.9c-0.5-0.2-1.1-0.3-1.7-0.3c-1.2,0-2.3,0.4-3.1,1.1c-0.9,0.7-1.3,1.7-1.4,2.9H111.4z"/>
</g>
</svg>
